<svg width="300" height="70" xmlns="http://www.w3.org/2000/svg">
 <style type="text/css">.st0{fill:#7FCFF5;}</style>

 <g>
  <title>background</title>
  <rect fill="none" id="canvas_background" height="72" width="302" y="-1" x="-1"/>
 </g>
 <g>
  <title>Layer 1</title>
  <path id="svg_1" d="m88.7,35c0,-4.7 3.8,-8.6 8.4,-8.6c4.5,0 8.3,3.8 8.3,8.6c0,4.7 -3.8,8.6 -8.3,8.6c-4.6,-0.1 -8.4,-3.9 -8.4,-8.6zm16.4,22.3l5.7,0l0,-35.5l-5.7,0l0,3.2l-0.1,0c-2,-2.5 -5.1,-3.9 -8.7,-3.9c-8.7,0 -13.7,7.1 -13.7,13.9c0,6.5 5.4,13.9 14,13.9c3.9,0 6.9,-1.7 8.4,-3.9l0.1,0l0,12.3z"/>
  <path id="svg_2" d="m122.1,35c0,-4.7 3.8,-8.6 8.4,-8.6c4.5,0 8.3,3.8 8.3,8.6c0,4.7 -3.8,8.6 -8.3,8.6c-4.6,-0.1 -8.4,-3.9 -8.4,-8.6zm16.4,13.2l5.7,0l0,-26.4l-5.7,0l0,3.2l-0.1,0c-1.5,-2.2 -4.5,-3.9 -8.4,-3.9c-8.6,0 -14,7.4 -14,13.9c0,6.8 5,13.9 13.7,13.9c3.6,0 6.9,-1.5 8.7,-3.9l0.1,0l0,3.2z"/>
  <path style="vector-effect: non-scaling-stroke;" stroke="null" id="svg_3" d="m151.4,31.7c0,-6.7 4.5,-10.6 9.7,-10.6c4,0 6.9,1.9 7.9,4.7l0.1,0c1,-2.8 3.9,-4.7 7.9,-4.7c5.2,0 9.7,3.9 9.7,10.6l0,16.5l-5.7,0l0,-16.5c0,-3.2 -2,-5 -4.4,-5c-2.7,0 -4.7,1.6 -4.7,5.7l0,15.7l-5.7,0l0,-15.7c0,-4.1 -2,-5.7 -4.7,-5.7c-2.3,0 -4.4,1.8 -4.4,5l0,16.5l-5.7,0l0,-16.5z"/>
  <path id="svg_4" d="m213.4,30.4c-1.5,-2.3 -3.7,-4 -6.9,-4c-5,0 -8.6,3.8 -8.6,8.6c0,4.7 3.6,8.6 8.6,8.6c3.1,0 5.3,-1.6 6.9,-4l5,2.9c-2.3,3.7 -6.8,6.4 -11.8,6.4c-9.2,0 -14.6,-6.9 -14.6,-13.9c0,-7 5.3,-13.9 14.6,-13.9c5.6,0 9.3,2.7 11.8,6.4l-5,2.9z"/>
  <path id="svg_5" d="m227.2,35c0,-4.7 3.6,-8.6 8.6,-8.6c5,0 8.6,3.8 8.6,8.6c0,4.7 -3.6,8.6 -8.6,8.6c-5,-0.1 -8.6,-3.9 -8.6,-8.6zm-6,0c0,7 5.3,13.9 14.6,13.9c9.2,0 14.6,-6.9 14.6,-13.9c0,-7 -5.3,-13.9 -14.6,-13.9c-9.2,0 -14.6,6.9 -14.6,13.9z"/>
  <path id="svg_6" d="m255.6,31.7c0,-6.7 4.5,-10.6 9.7,-10.6c4,0 6.9,1.9 7.9,4.7l0.1,0c1,-2.8 3.9,-4.7 7.9,-4.7c5.2,0 9.7,3.9 9.7,10.6l0,16.5l-5.7,0l0,-16.5c0,-3.2 -2,-5 -4.4,-5c-2.7,0 -4.7,1.6 -4.7,5.7l0,15.7l-5.7,0l0,-15.7c0,-4.1 -2,-5.7 -4.7,-5.7c-2.3,0 -4.4,1.8 -4.4,5l0,16.5l-5.7,0l0,-16.5z"/>
  <g id="svg_7">
   <circle id="svg_8" r="5.2" cy="12.7" cx="12.4"/>
   <circle id="svg_9" r="5.2" cy="12.7" cx="57.1"/>
   <circle id="svg_10" r="5.2" cy="12.7" cx="42.2"/>
   <circle id="svg_11" r="5.2" cy="12.7" cx="27.3"/>
   <circle id="svg_12" r="5.2" cy="42.4" cx="12.4"/>
   <circle id="svg_13" r="5.2" cy="42.4" cx="57.1"/>
   <circle id="svg_14" r="5.2" cy="42.4" cx="42.2" class="st0"/>
   <circle id="svg_15" r="5.2" cy="42.4" cx="27.3"/>
   <circle id="svg_16" r="5.2" cy="57.3" cx="12.4"/>
   <circle id="svg_17" r="5.2" cy="57.3" cx="57.1" class="st0"/>
   <circle id="svg_18" r="5.2" cy="57.3" cx="42.2"/>
   <circle id="svg_19" r="5.2" cy="57.3" cx="27.3"/>
   <circle id="svg_20" r="5.2" cy="27.6" cx="12.4"/>
   <circle id="svg_21" r="5.2" cy="27.6" cx="57.1"/>
   <circle id="svg_22" r="5.2" cy="27.6" cx="42.2"/>
   <circle id="svg_23" r="5.2" cy="27.6" cx="27.3"/>
  </g>
 </g>
</svg>